<svg id="SvgjsSvg1228" width="438" height="356" xmlns="http://www.w3.org/2000/svg" version="1.1" xmlns:xlink="http://www.w3.org/1999/xlink" xmlns:svgjs="http://svgjs.com/svgjs"><defs id="SvgjsDefs1229"><marker id="SvgjsMarker1250" markerWidth="14" markerHeight="10" refX="10" refY="5" viewBox="0 0 14 10" orient="auto" markerUnits="userSpaceOnUse" stroke-dasharray="0,0"><path id="SvgjsPath1251" d="M0,0 L14,5 L0,10 L0,0" fill="#323232" stroke="#323232" stroke-width="1"></path></marker><marker id="SvgjsMarker1254" markerWidth="14" markerHeight="10" refX="10" refY="5" viewBox="0 0 14 10" orient="auto" markerUnits="userSpaceOnUse" stroke-dasharray="0,0"><path id="SvgjsPath1255" d="M0,0 L14,5 L0,10 L0,0" fill="#323232" stroke="#323232" stroke-width="1"></path></marker><marker id="SvgjsMarker1264" markerWidth="14" markerHeight="10" refX="10" refY="5" viewBox="0 0 14 10" orient="auto" markerUnits="userSpaceOnUse" stroke-dasharray="0,0"><path id="SvgjsPath1265" d="M0,0 L14,5 L0,10 L0,0" fill="#323232" stroke="#323232" stroke-width="1"></path></marker><marker id="SvgjsMarker1280" markerWidth="14" markerHeight="10" refX="10" refY="5" viewBox="0 0 14 10" orient="auto" markerUnits="userSpaceOnUse" stroke-dasharray="0,0"><path id="SvgjsPath1281" d="M0,0 L14,5 L0,10 L0,0" fill="#323232" stroke="#323232" stroke-width="1"></path></marker><marker id="SvgjsMarker1284" markerWidth="14" markerHeight="10" refX="10" refY="5" viewBox="0 0 14 10" orient="auto" markerUnits="userSpaceOnUse" stroke-dasharray="0,0"><path id="SvgjsPath1285" d="M0,0 L14,5 L0,10 L0,0" fill="#323232" stroke="#323232" stroke-width="1"></path></marker></defs><g id="SvgjsG1230" transform="translate(25,109)"><path id="SvgjsPath1231" d="M 0 0L 96 0L 96 54L 0 54Z" stroke="rgba(33,41,48,1)" stroke-width="2" fill-opacity="1" fill="#ffffff"></path><g id="SvgjsG1232"><text id="SvgjsText1233" font-family="微软雅黑" text-anchor="middle" font-size="16px" width="76px" fill="#323232" font-weight="400" align="middle" lineHeight="125%" anchor="middle" family="微软雅黑" size="16px" weight="400" font-style="" opacity="1" y="13" transform="rotate(0)"><tspan id="SvgjsTspan1234" dy="20" x="48"><tspan id="SvgjsTspan1235" style="text-decoration:;">98ca9</tspan></tspan></text></g></g><g id="SvgjsG1236" transform="translate(171,109)"><path id="SvgjsPath1237" d="M 0 0L 96 0L 96 54L 0 54Z" stroke="rgba(33,41,48,1)" stroke-width="2" fill-opacity="1" fill="#ffffff"></path><g id="SvgjsG1238"><text id="SvgjsText1239" font-family="微软雅黑" text-anchor="middle" font-size="16px" width="76px" fill="#323232" font-weight="400" align="middle" lineHeight="125%" anchor="middle" family="微软雅黑" size="16px" weight="400" font-style="" opacity="1" y="13" transform="rotate(0)"><tspan id="SvgjsTspan1240" dy="20" x="48"><tspan id="SvgjsTspan1241" style="text-decoration:;">34ac2</tspan></tspan></text></g></g><g id="SvgjsG1242" transform="translate(317,109)"><path id="SvgjsPath1243" d="M 0 0L 96 0L 96 54L 0 54Z" stroke="rgba(33,41,48,1)" stroke-width="2" fill-opacity="1" fill="#ffffff"></path><g id="SvgjsG1244"><text id="SvgjsText1245" font-family="微软雅黑" text-anchor="middle" font-size="16px" width="76px" fill="#323232" font-weight="400" align="middle" lineHeight="125%" anchor="middle" family="微软雅黑" size="16px" weight="400" font-style="" opacity="1" y="13" transform="rotate(0)"><tspan id="SvgjsTspan1246" dy="20" x="48"><tspan id="SvgjsTspan1247" style="text-decoration:;">f30ab</tspan></tspan></text></g></g><g id="SvgjsG1248"><path id="SvgjsPath1249" d="M170 136L146 136L146 136L124.6 136" stroke="#323232" stroke-width="2" fill="none" marker-end="url(#SvgjsMarker1250)"></path></g><g id="SvgjsG1252"><path id="SvgjsPath1253" d="M316 136L292 136L292 136L270.6 136" stroke="#323232" stroke-width="2" fill="none" marker-end="url(#SvgjsMarker1254)"></path></g><g id="SvgjsG1256" transform="translate(317,25)"><path id="SvgjsPath1257" d="M 0 0L 96 0L 96 54L 0 54Z" stroke="rgba(33,41,48,1)" stroke-width="2" fill-opacity="1" fill="#f21905"></path><g id="SvgjsG1258"><text id="SvgjsText1259" font-family="微软雅黑" text-anchor="middle" font-size="16px" width="76px" fill="#ffffff" font-weight="400" align="middle" lineHeight="125%" anchor="middle" family="微软雅黑" size="16px" weight="400" font-style="" opacity="1" y="13" transform="rotate(0)"><tspan id="SvgjsTspan1260" dy="20" x="48"><tspan id="SvgjsTspan1261" style="text-decoration:;">master</tspan></tspan></text></g></g><g id="SvgjsG1262"><path id="SvgjsPath1263" d="M365 80L365 94L365 94L365 105.39999999999998" stroke="#323232" stroke-width="2" fill="none" marker-end="url(#SvgjsMarker1264)"></path></g><g id="SvgjsG1266" transform="translate(317,277)"><path id="SvgjsPath1267" d="M 0 0L 96 0L 96 54L 0 54Z" stroke="rgba(33,41,48,1)" stroke-width="2" fill-opacity="1" fill="#f5c30c"></path><g id="SvgjsG1268"><text id="SvgjsText1269" font-family="微软雅黑" text-anchor="middle" font-size="13px" width="76px" fill="#ffffff" font-weight="400" align="middle" lineHeight="125%" anchor="middle" family="微软雅黑" size="13px" weight="400" font-style="" opacity="1" y="16.375" transform="rotate(0)"><tspan id="SvgjsTspan1270" dy="16" x="48"><tspan id="SvgjsTspan1271" style="text-decoration:;">HEAD</tspan></tspan></text></g></g><g id="SvgjsG1272" transform="translate(317,193)"><path id="SvgjsPath1273" d="M 0 0L 96 0L 96 54L 0 54Z" stroke="rgba(33,41,48,1)" stroke-width="2" fill-opacity="1" fill="#f21905"></path><g id="SvgjsG1274"><text id="SvgjsText1275" font-family="微软雅黑" text-anchor="middle" font-size="16px" width="76px" fill="#ffffff" font-weight="400" align="middle" lineHeight="125%" anchor="middle" family="微软雅黑" size="16px" weight="400" font-style="" opacity="1" y="13" transform="rotate(0)"><tspan id="SvgjsTspan1276" dy="20" x="48"><tspan id="SvgjsTspan1277" style="text-decoration:;">iss01</tspan></tspan></text></g></g><g id="SvgjsG1278"><path id="SvgjsPath1279" d="M365 192L365 178L365 178L365 166.60000000000002" stroke="#323232" stroke-width="2" fill="none" marker-end="url(#SvgjsMarker1280)"></path></g><g id="SvgjsG1282"><path id="SvgjsPath1283" d="M365 276L365 262L365 262L365 250.60000000000002" stroke="#323232" stroke-width="2" fill="none" marker-end="url(#SvgjsMarker1284)"></path></g></svg>