<svg id="SvgjsSvg1838" width="730" height="524" xmlns="http://www.w3.org/2000/svg" version="1.1" xmlns:xlink="http://www.w3.org/1999/xlink" xmlns:svgjs="http://svgjs.com/svgjs"><defs id="SvgjsDefs1839"><marker id="SvgjsMarker1872" markerWidth="14" markerHeight="10" refX="10" refY="5" viewBox="0 0 14 10" orient="auto" markerUnits="userSpaceOnUse" stroke-dasharray="0,0"><path id="SvgjsPath1873" d="M0,0 L14,5 L0,10 L0,0" fill="#323232" stroke="#323232" stroke-width="1"></path></marker><marker id="SvgjsMarker1888" markerWidth="14" markerHeight="10" refX="10" refY="5" viewBox="0 0 14 10" orient="auto" markerUnits="userSpaceOnUse" stroke-dasharray="0,0"><path id="SvgjsPath1889" d="M0,0 L14,5 L0,10 L0,0" fill="#323232" stroke="#323232" stroke-width="1"></path></marker><marker id="SvgjsMarker1892" markerWidth="14" markerHeight="10" refX="10" refY="5" viewBox="0 0 14 10" orient="auto" markerUnits="userSpaceOnUse" stroke-dasharray="0,0"><path id="SvgjsPath1893" d="M0,0 L14,5 L0,10 L0,0" fill="#323232" stroke="#323232" stroke-width="1"></path></marker><marker id="SvgjsMarker1908" markerWidth="14" markerHeight="10" refX="10" refY="5" viewBox="0 0 14 10" orient="auto" markerUnits="userSpaceOnUse" stroke-dasharray="0,0"><path id="SvgjsPath1909" d="M0,0 L14,5 L0,10 L0,0" fill="#323232" stroke="#323232" stroke-width="1"></path></marker><marker id="SvgjsMarker1912" markerWidth="14" markerHeight="10" refX="10" refY="5" viewBox="0 0 14 10" orient="auto" markerUnits="userSpaceOnUse" stroke-dasharray="0,0"><path id="SvgjsPath1913" d="M0,0 L14,5 L0,10 L0,0" fill="#323232" stroke="#323232" stroke-width="1"></path></marker><marker id="SvgjsMarker1928" markerWidth="14" markerHeight="10" refX="10" refY="5" viewBox="0 0 14 10" orient="auto" markerUnits="userSpaceOnUse" stroke-dasharray="0,0"><path id="SvgjsPath1929" d="M0,0 L14,5 L0,10 L0,0" fill="#323232" stroke="#323232" stroke-width="1"></path></marker><marker id="SvgjsMarker1932" markerWidth="14" markerHeight="10" refX="10" refY="5" viewBox="0 0 14 10" orient="auto" markerUnits="userSpaceOnUse" stroke-dasharray="0,0"><path id="SvgjsPath1933" d="M0,0 L14,5 L0,10 L0,0" fill="#323232" stroke="#323232" stroke-width="1"></path></marker><marker id="SvgjsMarker1936" markerWidth="14" markerHeight="10" refX="10" refY="5" viewBox="0 0 14 10" orient="auto" markerUnits="userSpaceOnUse" stroke-dasharray="0,0"><path id="SvgjsPath1937" d="M0,0 L14,5 L0,10 L0,0" fill="#323232" stroke="#323232" stroke-width="1"></path></marker><marker id="SvgjsMarker1940" markerWidth="14" markerHeight="10" refX="10" refY="5" viewBox="0 0 14 10" orient="auto" markerUnits="userSpaceOnUse" stroke-dasharray="0,0"><path id="SvgjsPath1941" d="M0,0 L14,5 L0,10 L0,0" fill="#323232" stroke="#323232" stroke-width="1"></path></marker><marker id="SvgjsMarker1944" markerWidth="14" markerHeight="10" refX="10" refY="5" viewBox="0 0 14 10" orient="auto" markerUnits="userSpaceOnUse" stroke-dasharray="0,0"><path id="SvgjsPath1945" d="M0,0 L14,5 L0,10 L0,0" fill="#323232" stroke="#323232" stroke-width="1"></path></marker><marker id="SvgjsMarker1954" markerWidth="14" markerHeight="10" refX="10" refY="5" viewBox="0 0 14 10" orient="auto" markerUnits="userSpaceOnUse" stroke-dasharray="0,0"><path id="SvgjsPath1955" d="M0,0 L14,5 L0,10 L0,0" fill="#323232" stroke="#323232" stroke-width="1"></path></marker></defs><g id="SvgjsG1840" transform="translate(25,277)"><path id="SvgjsPath1841" d="M 0 0L 96 0L 96 54L 0 54Z" stroke="rgba(33,41,48,1)" stroke-width="2" fill-opacity="1" fill="#ffffff"></path><g id="SvgjsG1842"><text id="SvgjsText1843" font-family="微软雅黑" text-anchor="middle" font-size="18px" width="76px" fill="#323232" font-weight="400" align="middle" lineHeight="125%" anchor="middle" family="微软雅黑" size="18px" weight="400" font-style="" opacity="1" y="11.25" transform="rotate(0)"><tspan id="SvgjsTspan1844" dy="22" x="48"><tspan id="SvgjsTspan1845" style="text-decoration:;">c1</tspan></tspan></text></g></g><g id="SvgjsG1846" transform="translate(609,277)"><path id="SvgjsPath1847" d="M 0 0L 96 0L 96 54L 0 54Z" stroke="rgba(33,41,48,1)" stroke-width="2" fill-opacity="1" fill="#f21905"></path><g id="SvgjsG1848"><text id="SvgjsText1849" font-family="微软雅黑" text-anchor="middle" font-size="18px" width="76px" fill="#ffffff" font-weight="400" align="middle" lineHeight="125%" anchor="middle" family="微软雅黑" size="18px" weight="400" font-style="" opacity="1" y="11.25" transform="rotate(0)"><tspan id="SvgjsTspan1850" dy="22" x="48"><tspan id="SvgjsTspan1851" style="text-decoration:;">test</tspan></tspan></text></g></g><g id="SvgjsG1852" transform="translate(463,25)"><path id="SvgjsPath1853" d="M 0 0L 96 0L 96 54L 0 54Z" stroke="rgba(33,41,48,1)" stroke-width="2" fill-opacity="1" fill="#f5c30c"></path><g id="SvgjsG1854"><text id="SvgjsText1855" font-family="微软雅黑" text-anchor="middle" font-size="18px" width="76px" fill="#ffffff" font-weight="400" align="middle" lineHeight="125%" anchor="middle" family="微软雅黑" size="18px" weight="400" font-style="" opacity="1" y="11.25" transform="rotate(0)"><tspan id="SvgjsTspan1856" dy="22" x="48"><tspan id="SvgjsTspan1857" style="text-decoration:;">HEAD</tspan></tspan></text></g></g><g id="SvgjsG1858" transform="translate(463,109)"><path id="SvgjsPath1859" d="M 0 0L 96 0L 96 54L 0 54Z" stroke="rgba(33,41,48,1)" stroke-width="2" fill-opacity="1" fill="#f21905"></path><g id="SvgjsG1860"><text id="SvgjsText1861" font-family="微软雅黑" text-anchor="middle" font-size="18px" width="76px" fill="#ffffff" font-weight="400" align="middle" lineHeight="125%" anchor="middle" family="微软雅黑" size="18px" weight="400" font-style="" opacity="1" y="11.25" transform="rotate(0)"><tspan id="SvgjsTspan1862" dy="22" x="48"><tspan id="SvgjsTspan1863" style="text-decoration:;">master</tspan></tspan></text></g></g><g id="SvgjsG1864" transform="translate(171,277)"><path id="SvgjsPath1865" d="M 0 0L 96 0L 96 54L 0 54Z" stroke="rgba(33,41,48,1)" stroke-width="2" fill-opacity="1" fill="#ffffff"></path><g id="SvgjsG1866"><text id="SvgjsText1867" font-family="微软雅黑" text-anchor="middle" font-size="18px" width="76px" fill="#323232" font-weight="400" align="middle" lineHeight="125%" anchor="middle" family="微软雅黑" size="18px" weight="400" font-style="" opacity="1" y="11.25" transform="rotate(0)"><tspan id="SvgjsTspan1868" dy="22" x="48"><tspan id="SvgjsTspan1869" style="text-decoration:;">c2</tspan></tspan></text></g></g><g id="SvgjsG1870"><path id="SvgjsPath1871" d="M170 304L146 304L146 304L124.60000000000002 304" stroke="#323232" stroke-width="2" fill="none" marker-end="url(#SvgjsMarker1872)"></path></g><g id="SvgjsG1874" transform="translate(317,277)"><path id="SvgjsPath1875" d="M 0 0L 96 0L 96 54L 0 54Z" stroke="rgba(33,41,48,1)" stroke-width="2" fill-opacity="1" fill="#ffffff"></path><g id="SvgjsG1876"><text id="SvgjsText1877" font-family="微软雅黑" text-anchor="middle" font-size="18px" width="76px" fill="#323232" font-weight="400" align="middle" lineHeight="125%" anchor="middle" family="微软雅黑" size="18px" weight="400" font-style="" opacity="1" y="11.25" transform="rotate(0)"><tspan id="SvgjsTspan1878" dy="22" x="48"><tspan id="SvgjsTspan1879" style="text-decoration:;">c5</tspan></tspan></text></g></g><g id="SvgjsG1880" transform="translate(463,277)"><path id="SvgjsPath1881" d="M 0 0L 96 0L 96 54L 0 54Z" stroke="rgba(33,41,48,1)" stroke-width="2" fill-opacity="1" fill="#ffffff"></path><g id="SvgjsG1882"><text id="SvgjsText1883" font-family="微软雅黑" text-anchor="middle" font-size="18px" width="76px" fill="#323232" font-weight="400" align="middle" lineHeight="125%" anchor="middle" family="微软雅黑" size="18px" weight="400" font-style="" opacity="1" y="11.25" transform="rotate(0)"><tspan id="SvgjsTspan1884" dy="22" x="48"><tspan id="SvgjsTspan1885" style="text-decoration:;">c6</tspan></tspan></text></g></g><g id="SvgjsG1886"><path id="SvgjsPath1887" d="M462 304L438 304L438 304L416.6 304" stroke="#323232" stroke-width="2" fill="none" marker-end="url(#SvgjsMarker1888)"></path></g><g id="SvgjsG1890"><path id="SvgjsPath1891" d="M316 304L270.6 304" stroke="#323232" stroke-width="2" fill="none" marker-end="url(#SvgjsMarker1892)"></path></g><g id="SvgjsG1894" transform="translate(463,193)"><path id="SvgjsPath1895" d="M 0 0L 96 0L 96 54L 0 54Z" stroke="rgba(33,41,48,1)" stroke-width="2" fill-opacity="1" fill="#ffffff"></path><g id="SvgjsG1896"><text id="SvgjsText1897" font-family="微软雅黑" text-anchor="middle" font-size="18px" width="76px" fill="#323232" font-weight="400" align="middle" lineHeight="125%" anchor="middle" family="微软雅黑" size="18px" weight="400" font-style="" opacity="1" y="11.25" transform="rotate(0)"><tspan id="SvgjsTspan1898" dy="22" x="48"><tspan id="SvgjsTspan1899" style="text-decoration:;">c4</tspan></tspan></text></g></g><g id="SvgjsG1900" transform="translate(317,193)"><path id="SvgjsPath1901" d="M 0 0L 96 0L 96 54L 0 54Z" stroke="rgba(33,41,48,1)" stroke-width="2" fill-opacity="1" fill="#ffffff"></path><g id="SvgjsG1902"><text id="SvgjsText1903" font-family="微软雅黑" text-anchor="middle" font-size="18px" width="76px" fill="#323232" font-weight="400" align="middle" lineHeight="125%" anchor="middle" family="微软雅黑" size="18px" weight="400" font-style="" opacity="1" y="11.25" transform="rotate(0)"><tspan id="SvgjsTspan1904" dy="22" x="48"><tspan id="SvgjsTspan1905" style="text-decoration:;">c3</tspan></tspan></text></g></g><g id="SvgjsG1906"><path id="SvgjsPath1907" d="M462 220L438 220L438 220L416.6 220" stroke="#323232" stroke-width="2" fill="none" marker-end="url(#SvgjsMarker1908)"></path></g><g id="SvgjsG1910"><path id="SvgjsPath1911" d="M316.1355819598141 220.50277375806732L222.11190494466928 275.19001447095764" stroke="#323232" stroke-width="2" fill="none" marker-end="url(#SvgjsMarker1912)"></path></g><g id="SvgjsG1914" transform="translate(463,361)"><path id="SvgjsPath1915" d="M 0 0L 96 0L 96 54L 0 54Z" stroke="rgba(33,41,48,1)" stroke-width="2" fill-opacity="1" fill="#ffffff"></path><g id="SvgjsG1916"><text id="SvgjsText1917" font-family="微软雅黑" text-anchor="middle" font-size="18px" width="76px" fill="#323232" font-weight="400" align="middle" lineHeight="125%" anchor="middle" family="微软雅黑" size="18px" weight="400" font-style="" opacity="1" y="11.25" transform="rotate(0)"><tspan id="SvgjsTspan1918" dy="22" x="48"><tspan id="SvgjsTspan1919" style="text-decoration:;">c7</tspan></tspan></text></g></g><g id="SvgjsG1920" transform="translate(609,361)"><path id="SvgjsPath1921" d="M 0 0L 96 0L 96 54L 0 54Z" stroke="rgba(33,41,48,1)" stroke-width="2" fill-opacity="1" fill="#ffffff"></path><g id="SvgjsG1922"><text id="SvgjsText1923" font-family="微软雅黑" text-anchor="middle" font-size="18px" width="76px" fill="#323232" font-weight="400" align="middle" lineHeight="125%" anchor="middle" family="微软雅黑" size="18px" weight="400" font-style="" opacity="1" y="11.25" transform="rotate(0)"><tspan id="SvgjsTspan1924" dy="22" x="48"><tspan id="SvgjsTspan1925" style="text-decoration:;">c8</tspan></tspan></text></g></g><g id="SvgjsG1926"><path id="SvgjsPath1927" d="M608 388L584 388L584 388L562.6 388" stroke="#323232" stroke-width="2" fill="none" marker-end="url(#SvgjsMarker1928)"></path></g><g id="SvgjsG1930"><path id="SvgjsPath1931" d="M462.1355819598141 387.4972262419327L368.1119049446693 332.80998552904236" stroke="#323232" stroke-width="2" fill="none" marker-end="url(#SvgjsMarker1932)"></path></g><g id="SvgjsG1934"><path id="SvgjsPath1935" d="M511 164L511 189.4" stroke="#323232" stroke-width="2" fill="none" marker-end="url(#SvgjsMarker1936)"></path></g><g id="SvgjsG1938"><path id="SvgjsPath1939" d="M608 304L562.6 304" stroke="#323232" stroke-width="2" fill="none" marker-end="url(#SvgjsMarker1940)"></path></g><g id="SvgjsG1942"><path id="SvgjsPath1943" d="M511 80L511 105.4" stroke="#323232" stroke-width="2" fill="none" marker-end="url(#SvgjsMarker1944)"></path></g><g id="SvgjsG1946" transform="translate(609,445)"><path id="SvgjsPath1947" d="M 0 0L 96 0L 96 54L 0 54Z" stroke="rgba(33,41,48,1)" stroke-width="2" fill-opacity="1" fill="#f21905"></path><g id="SvgjsG1948"><text id="SvgjsText1949" font-family="微软雅黑" text-anchor="middle" font-size="18px" width="76px" fill="#ffffff" font-weight="400" align="middle" lineHeight="125%" anchor="middle" family="微软雅黑" size="18px" weight="400" font-style="" opacity="1" y="11.25" transform="rotate(0)"><tspan id="SvgjsTspan1950" dy="22" x="48"><tspan id="SvgjsTspan1951" style="text-decoration:;">test02</tspan></tspan></text></g></g><g id="SvgjsG1952"><path id="SvgjsPath1953" d="M657 444L657 418.6" stroke="#323232" stroke-width="2" fill="none" marker-end="url(#SvgjsMarker1954)"></path></g></svg>