<svg id="SvgjsSvg1740" width="1022" height="364" xmlns="http://www.w3.org/2000/svg" version="1.1" xmlns:xlink="http://www.w3.org/1999/xlink" xmlns:svgjs="http://svgjs.com/svgjs"><defs id="SvgjsDefs1741"><marker id="SvgjsMarker1774" markerWidth="14" markerHeight="10" refX="10" refY="5" viewBox="0 0 14 10" orient="auto" markerUnits="userSpaceOnUse" stroke-dasharray="0,0"><path id="SvgjsPath1775" d="M0,0 L14,5 L0,10 L0,0" fill="#323232" stroke="#323232" stroke-width="1"></path></marker><marker id="SvgjsMarker1790" markerWidth="14" markerHeight="10" refX="10" refY="5" viewBox="0 0 14 10" orient="auto" markerUnits="userSpaceOnUse" stroke-dasharray="0,0"><path id="SvgjsPath1791" d="M0,0 L14,5 L0,10 L0,0" fill="#323232" stroke="#323232" stroke-width="1"></path></marker><marker id="SvgjsMarker1794" markerWidth="14" markerHeight="10" refX="10" refY="5" viewBox="0 0 14 10" orient="auto" markerUnits="userSpaceOnUse" stroke-dasharray="0,0"><path id="SvgjsPath1795" d="M0,0 L14,5 L0,10 L0,0" fill="#323232" stroke="#323232" stroke-width="1"></path></marker><marker id="SvgjsMarker1804" markerWidth="14" markerHeight="10" refX="10" refY="5" viewBox="0 0 14 10" orient="auto" markerUnits="userSpaceOnUse" stroke-dasharray="0,0"><path id="SvgjsPath1805" d="M0,0 L14,5 L0,10 L0,0" fill="#323232" stroke="#323232" stroke-width="1"></path></marker><marker id="SvgjsMarker1814" markerWidth="14" markerHeight="10" refX="10" refY="5" viewBox="0 0 14 10" orient="auto" markerUnits="userSpaceOnUse" stroke-dasharray="0,0"><path id="SvgjsPath1815" d="M0,0 L14,5 L0,10 L0,0" fill="#323232" stroke="#323232" stroke-width="1"></path></marker><marker id="SvgjsMarker1818" markerWidth="14" markerHeight="10" refX="10" refY="5" viewBox="0 0 14 10" orient="auto" markerUnits="userSpaceOnUse" stroke-dasharray="0,0"><path id="SvgjsPath1819" d="M0,0 L14,5 L0,10 L0,0" fill="#323232" stroke="#323232" stroke-width="1"></path></marker><marker id="SvgjsMarker1822" markerWidth="14" markerHeight="10" refX="10" refY="5" viewBox="0 0 14 10" orient="auto" markerUnits="userSpaceOnUse" stroke-dasharray="0,0"><path id="SvgjsPath1823" d="M0,0 L14,5 L0,10 L0,0" fill="#323232" stroke="#323232" stroke-width="1"></path></marker><marker id="SvgjsMarker1826" markerWidth="14" markerHeight="10" refX="10" refY="5" viewBox="0 0 14 10" orient="auto" markerUnits="userSpaceOnUse" stroke-dasharray="0,0"><path id="SvgjsPath1827" d="M0,0 L14,5 L0,10 L0,0" fill="#323232" stroke="#323232" stroke-width="1"></path></marker><marker id="SvgjsMarker1836" markerWidth="14" markerHeight="10" refX="10" refY="5" viewBox="0 0 14 10" orient="auto" markerUnits="userSpaceOnUse" stroke-dasharray="0,0"><path id="SvgjsPath1837" d="M0,0 L14,5 L0,10 L0,0" fill="#323232" stroke="#323232" stroke-width="1"></path></marker></defs><g id="SvgjsG1742" transform="translate(25,285)"><path id="SvgjsPath1743" d="M 0 0L 96 0L 96 54L 0 54Z" stroke="rgba(33,41,48,1)" stroke-width="2" fill-opacity="1" fill="#ffffff"></path><g id="SvgjsG1744"><text id="SvgjsText1745" font-family="微软雅黑" text-anchor="middle" font-size="18px" width="76px" fill="#323232" font-weight="400" align="middle" lineHeight="125%" anchor="middle" family="微软雅黑" size="18px" weight="400" font-style="" opacity="1" y="11.25" transform="rotate(0)"><tspan id="SvgjsTspan1746" dy="22" x="48"><tspan id="SvgjsTspan1747" style="text-decoration:;">c3</tspan></tspan></text></g></g><g id="SvgjsG1748" transform="translate(901,113)"><path id="SvgjsPath1749" d="M 0 0L 96 0L 96 54L 0 54Z" stroke="rgba(33,41,48,1)" stroke-width="2" fill-opacity="1" fill="#f21905"></path><g id="SvgjsG1750"><text id="SvgjsText1751" font-family="微软雅黑" text-anchor="middle" font-size="18px" width="76px" fill="#ffffff" font-weight="400" align="middle" lineHeight="125%" anchor="middle" family="微软雅黑" size="18px" weight="400" font-style="" opacity="1" y="11.25" transform="rotate(0)"><tspan id="SvgjsTspan1752" dy="22" x="48"><tspan id="SvgjsTspan1753" style="text-decoration:;">test</tspan></tspan></text></g></g><g id="SvgjsG1754" transform="translate(901,25)"><path id="SvgjsPath1755" d="M 0 0L 96 0L 96 54L 0 54Z" stroke="rgba(33,41,48,1)" stroke-width="2" fill-opacity="1" fill="#f5c30c"></path><g id="SvgjsG1756"><text id="SvgjsText1757" font-family="微软雅黑" text-anchor="middle" font-size="18px" width="76px" fill="#ffffff" font-weight="400" align="middle" lineHeight="125%" anchor="middle" family="微软雅黑" size="18px" weight="400" font-style="" opacity="1" y="11.25" transform="rotate(0)"><tspan id="SvgjsTspan1758" dy="22" x="48"><tspan id="SvgjsTspan1759" style="text-decoration:;">HEAD</tspan></tspan></text></g></g><g id="SvgjsG1760" transform="translate(609,113)"><path id="SvgjsPath1761" d="M 0 0L 96 0L 96 54L 0 54Z" stroke="rgba(33,41,48,1)" stroke-width="2" fill-opacity="1" fill="#f21905"></path><g id="SvgjsG1762"><text id="SvgjsText1763" font-family="微软雅黑" text-anchor="middle" font-size="18px" width="76px" fill="#ffffff" font-weight="400" align="middle" lineHeight="125%" anchor="middle" family="微软雅黑" size="18px" weight="400" font-style="" opacity="1" y="11.25" transform="rotate(0)"><tspan id="SvgjsTspan1764" dy="22" x="48"><tspan id="SvgjsTspan1765" style="text-decoration:;">master</tspan></tspan></text></g></g><g id="SvgjsG1766" transform="translate(171,285)"><path id="SvgjsPath1767" d="M 0 0L 96 0L 96 54L 0 54Z" stroke="rgba(33,41,48,1)" stroke-width="2" fill-opacity="1" fill="#ffffff"></path><g id="SvgjsG1768"><text id="SvgjsText1769" font-family="微软雅黑" text-anchor="middle" font-size="18px" width="76px" fill="#323232" font-weight="400" align="middle" lineHeight="125%" anchor="middle" family="微软雅黑" size="18px" weight="400" font-style="" opacity="1" y="11.25" transform="rotate(0)"><tspan id="SvgjsTspan1770" dy="22" x="48"><tspan id="SvgjsTspan1771" style="text-decoration:;">c4</tspan></tspan></text></g></g><g id="SvgjsG1772"><path id="SvgjsPath1773" d="M170 312L146 312L146 312L124.60000000000002 312" stroke="#323232" stroke-width="2" fill="none" marker-end="url(#SvgjsMarker1774)"></path></g><g id="SvgjsG1776" transform="translate(755,201)"><path id="SvgjsPath1777" d="M 0 0L 96 0L 96 54L 0 54Z" stroke="rgba(33,41,48,1)" stroke-width="2" fill-opacity="1" fill="#ffffff"></path><g id="SvgjsG1778"><text id="SvgjsText1779" font-family="微软雅黑" text-anchor="middle" font-size="18px" width="76px" fill="#323232" font-weight="400" align="middle" lineHeight="125%" anchor="middle" family="微软雅黑" size="18px" weight="400" font-style="" opacity="1" y="11.25" transform="rotate(0)"><tspan id="SvgjsTspan1780" dy="22" x="48"><tspan id="SvgjsTspan1781" style="text-decoration:;">c5</tspan></tspan></text></g></g><g id="SvgjsG1782" transform="translate(901,201)"><path id="SvgjsPath1783" d="M 0 0L 96 0L 96 54L 0 54Z" stroke="rgba(33,41,48,1)" stroke-width="2" fill-opacity="1" fill="#ffffff"></path><g id="SvgjsG1784"><text id="SvgjsText1785" font-family="微软雅黑" text-anchor="middle" font-size="18px" width="76px" fill="#323232" font-weight="400" align="middle" lineHeight="125%" anchor="middle" family="微软雅黑" size="18px" weight="400" font-style="" opacity="1" y="11.25" transform="rotate(0)"><tspan id="SvgjsTspan1786" dy="22" x="48"><tspan id="SvgjsTspan1787" style="text-decoration:;">c6</tspan></tspan></text></g></g><g id="SvgjsG1788"><path id="SvgjsPath1789" d="M900 228L876 228L876 228L854.5999999999999 228" stroke="#323232" stroke-width="2" fill="none" marker-end="url(#SvgjsMarker1790)"></path></g><g id="SvgjsG1792"><path id="SvgjsPath1793" d="M754 228L708.6 228" stroke="#323232" stroke-width="2" fill="none" marker-end="url(#SvgjsMarker1794)"></path></g><g id="SvgjsG1796" transform="translate(463,201)"><path id="SvgjsPath1797" d="M 0 0L 96 0L 96 54L 0 54Z" stroke="rgba(33,41,48,1)" stroke-width="2" fill-opacity="1" fill="#ffffff"></path><g id="SvgjsG1798"><text id="SvgjsText1799" font-family="微软雅黑" text-anchor="middle" font-size="18px" width="76px" fill="#323232" font-weight="400" align="middle" lineHeight="125%" anchor="middle" family="微软雅黑" size="18px" weight="400" font-style="" opacity="1" y="11.25" transform="rotate(0)"><tspan id="SvgjsTspan1800" dy="22" x="48"><tspan id="SvgjsTspan1801" style="text-decoration:;">c8</tspan></tspan></text></g></g><g id="SvgjsG1802"><path id="SvgjsPath1803" d="M949 168L949 184L949 184L949 197.4" stroke="#323232" stroke-width="2" fill="none" marker-end="url(#SvgjsMarker1804)"></path></g><g id="SvgjsG1806" transform="translate(317,201)"><path id="SvgjsPath1807" d="M 0 0L 96 0L 96 54L 0 54Z" stroke="rgba(33,41,48,1)" stroke-width="2" fill-opacity="1" fill="#ffffff"></path><g id="SvgjsG1808"><text id="SvgjsText1809" font-family="微软雅黑" text-anchor="middle" font-size="18px" width="76px" fill="#323232" font-weight="400" align="middle" lineHeight="125%" anchor="middle" family="微软雅黑" size="18px" weight="400" font-style="" opacity="1" y="11.25" transform="rotate(0)"><tspan id="SvgjsTspan1810" dy="22" x="48"><tspan id="SvgjsTspan1811" style="text-decoration:;">c7</tspan></tspan></text></g></g><g id="SvgjsG1812"><path id="SvgjsPath1813" d="M462 228L438 228L438 228L416.6 228" stroke="#323232" stroke-width="2" fill="none" marker-end="url(#SvgjsMarker1814)"></path></g><g id="SvgjsG1816"><path id="SvgjsPath1817" d="M657 168L657 184L657 184L657 197.4" stroke="#323232" stroke-width="2" fill="none" marker-end="url(#SvgjsMarker1818)"></path></g><g id="SvgjsG1820"><path id="SvgjsPath1821" d="M949 80L949 96L949 96L949 109.4" stroke="#323232" stroke-width="2" fill="none" marker-end="url(#SvgjsMarker1822)"></path></g><g id="SvgjsG1824"><path id="SvgjsPath1825" d="M316.1355819598141 228.50277375806732L222.11190494466928 283.19001447095764" stroke="#323232" stroke-width="2" fill="none" marker-end="url(#SvgjsMarker1826)"></path></g><g id="SvgjsG1828" transform="translate(609,201)"><path id="SvgjsPath1829" d="M 0 0L 96 0L 96 54L 0 54Z" stroke="rgba(33,41,48,1)" stroke-width="2" fill-opacity="1" fill="#ffffff"></path><g id="SvgjsG1830"><text id="SvgjsText1831" font-family="微软雅黑" text-anchor="middle" font-size="18px" width="76px" fill="#323232" font-weight="400" align="middle" lineHeight="125%" anchor="middle" family="微软雅黑" size="18px" weight="400" font-style="" opacity="1" y="11.25" transform="rotate(0)"><tspan id="SvgjsTspan1832" dy="22" x="48"><tspan id="SvgjsTspan1833" style="text-decoration:;">c9</tspan></tspan></text></g></g><g id="SvgjsG1834"><path id="SvgjsPath1835" d="M608 228L562.6 228" stroke="#323232" stroke-width="2" fill="none" marker-end="url(#SvgjsMarker1836)"></path></g></svg>