<svg id="SvgjsSvg1530" width="730" height="528" xmlns="http://www.w3.org/2000/svg" version="1.1" xmlns:xlink="http://www.w3.org/1999/xlink" xmlns:svgjs="http://svgjs.com/svgjs"><defs id="SvgjsDefs1531"><marker id="SvgjsMarker1564" markerWidth="14" markerHeight="10" refX="10" refY="5" viewBox="0 0 14 10" orient="auto" markerUnits="userSpaceOnUse" stroke-dasharray="0,0"><path id="SvgjsPath1565" d="M0,0 L14,5 L0,10 L0,0" fill="#323232" stroke="#323232" stroke-width="1"></path></marker><marker id="SvgjsMarker1580" markerWidth="14" markerHeight="10" refX="10" refY="5" viewBox="0 0 14 10" orient="auto" markerUnits="userSpaceOnUse" stroke-dasharray="0,0"><path id="SvgjsPath1581" d="M0,0 L14,5 L0,10 L0,0" fill="#323232" stroke="#323232" stroke-width="1"></path></marker><marker id="SvgjsMarker1584" markerWidth="14" markerHeight="10" refX="10" refY="5" viewBox="0 0 14 10" orient="auto" markerUnits="userSpaceOnUse" stroke-dasharray="0,0"><path id="SvgjsPath1585" d="M0,0 L14,5 L0,10 L0,0" fill="#323232" stroke="#323232" stroke-width="1"></path></marker><marker id="SvgjsMarker1594" markerWidth="14" markerHeight="10" refX="10" refY="5" viewBox="0 0 14 10" orient="auto" markerUnits="userSpaceOnUse" stroke-dasharray="0,0"><path id="SvgjsPath1595" d="M0,0 L14,5 L0,10 L0,0" fill="#323232" stroke="#323232" stroke-width="1"></path></marker><marker id="SvgjsMarker1604" markerWidth="14" markerHeight="10" refX="10" refY="5" viewBox="0 0 14 10" orient="auto" markerUnits="userSpaceOnUse" stroke-dasharray="0,0"><path id="SvgjsPath1605" d="M0,0 L14,5 L0,10 L0,0" fill="#323232" stroke="#323232" stroke-width="1"></path></marker><marker id="SvgjsMarker1608" markerWidth="14" markerHeight="10" refX="10" refY="5" viewBox="0 0 14 10" orient="auto" markerUnits="userSpaceOnUse" stroke-dasharray="0,0"><path id="SvgjsPath1609" d="M0,0 L14,5 L0,10 L0,0" fill="#323232" stroke="#323232" stroke-width="1"></path></marker><marker id="SvgjsMarker1612" markerWidth="14" markerHeight="10" refX="10" refY="5" viewBox="0 0 14 10" orient="auto" markerUnits="userSpaceOnUse" stroke-dasharray="0,0"><path id="SvgjsPath1613" d="M0,0 L14,5 L0,10 L0,0" fill="#323232" stroke="#323232" stroke-width="1"></path></marker><marker id="SvgjsMarker1616" markerWidth="14" markerHeight="10" refX="10" refY="5" viewBox="0 0 14 10" orient="auto" markerUnits="userSpaceOnUse" stroke-dasharray="0,0"><path id="SvgjsPath1617" d="M0,0 L14,5 L0,10 L0,0" fill="#323232" stroke="#323232" stroke-width="1"></path></marker><marker id="SvgjsMarker1626" markerWidth="14" markerHeight="10" refX="10" refY="5" viewBox="0 0 14 10" orient="auto" markerUnits="userSpaceOnUse" stroke-dasharray="0,0"><path id="SvgjsPath1627" d="M0,0 L14,5 L0,10 L0,0" fill="#323232" stroke="#323232" stroke-width="1"></path></marker></defs><g id="SvgjsG1532" transform="translate(25,281)"><path id="SvgjsPath1533" d="M 0 0L 96 0L 96 54L 0 54Z" stroke="rgba(33,41,48,1)" stroke-width="2" fill-opacity="1" fill="#ffffff"></path><g id="SvgjsG1534"><text id="SvgjsText1535" font-family="微软雅黑" text-anchor="middle" font-size="18px" width="76px" fill="#323232" font-weight="400" align="middle" lineHeight="125%" anchor="middle" family="微软雅黑" size="18px" weight="400" font-style="" opacity="1" y="11.25" transform="rotate(0)"><tspan id="SvgjsTspan1536" dy="22" x="48"><tspan id="SvgjsTspan1537" style="text-decoration:;">c3</tspan></tspan></text></g></g><g id="SvgjsG1538" transform="translate(463,449)"><path id="SvgjsPath1539" d="M 0 0L 96 0L 96 54L 0 54Z" stroke="rgba(33,41,48,1)" stroke-width="2" fill-opacity="1" fill="#f21905"></path><g id="SvgjsG1540"><text id="SvgjsText1541" font-family="微软雅黑" text-anchor="middle" font-size="18px" width="76px" fill="#ffffff" font-weight="400" align="middle" lineHeight="125%" anchor="middle" family="微软雅黑" size="18px" weight="400" font-style="" opacity="1" y="11.25" transform="rotate(0)"><tspan id="SvgjsTspan1542" dy="22" x="48"><tspan id="SvgjsTspan1543" style="text-decoration:;">test</tspan></tspan></text></g></g><g id="SvgjsG1544" transform="translate(609,25)"><path id="SvgjsPath1545" d="M 0 0L 96 0L 96 54L 0 54Z" stroke="rgba(33,41,48,1)" stroke-width="2" fill-opacity="1" fill="#f5c30c"></path><g id="SvgjsG1546"><text id="SvgjsText1547" font-family="微软雅黑" text-anchor="middle" font-size="18px" width="76px" fill="#ffffff" font-weight="400" align="middle" lineHeight="125%" anchor="middle" family="微软雅黑" size="18px" weight="400" font-style="" opacity="1" y="11.25" transform="rotate(0)"><tspan id="SvgjsTspan1548" dy="22" x="48"><tspan id="SvgjsTspan1549" style="text-decoration:;">HEAD</tspan></tspan></text></g></g><g id="SvgjsG1550" transform="translate(609,109)"><path id="SvgjsPath1551" d="M 0 0L 96 0L 96 54L 0 54Z" stroke="rgba(33,41,48,1)" stroke-width="2" fill-opacity="1" fill="#f21905"></path><g id="SvgjsG1552"><text id="SvgjsText1553" font-family="微软雅黑" text-anchor="middle" font-size="18px" width="76px" fill="#ffffff" font-weight="400" align="middle" lineHeight="125%" anchor="middle" family="微软雅黑" size="18px" weight="400" font-style="" opacity="1" y="11.25" transform="rotate(0)"><tspan id="SvgjsTspan1554" dy="22" x="48"><tspan id="SvgjsTspan1555" style="text-decoration:;">master</tspan></tspan></text></g></g><g id="SvgjsG1556" transform="translate(171,281)"><path id="SvgjsPath1557" d="M 0 0L 96 0L 96 54L 0 54Z" stroke="rgba(33,41,48,1)" stroke-width="2" fill-opacity="1" fill="#ffffff"></path><g id="SvgjsG1558"><text id="SvgjsText1559" font-family="微软雅黑" text-anchor="middle" font-size="18px" width="76px" fill="#323232" font-weight="400" align="middle" lineHeight="125%" anchor="middle" family="微软雅黑" size="18px" weight="400" font-style="" opacity="1" y="11.25" transform="rotate(0)"><tspan id="SvgjsTspan1560" dy="22" x="48"><tspan id="SvgjsTspan1561" style="text-decoration:;">c4</tspan></tspan></text></g></g><g id="SvgjsG1562"><path id="SvgjsPath1563" d="M170 308L146 308L146 308L124.60000000000002 308" stroke="#323232" stroke-width="2" fill="none" marker-end="url(#SvgjsMarker1564)"></path></g><g id="SvgjsG1566" transform="translate(317,365)"><path id="SvgjsPath1567" d="M 0 0L 96 0L 96 54L 0 54Z" stroke="rgba(33,41,48,1)" stroke-width="2" fill-opacity="1" fill="#ffffff"></path><g id="SvgjsG1568"><text id="SvgjsText1569" font-family="微软雅黑" text-anchor="middle" font-size="18px" width="76px" fill="#323232" font-weight="400" align="middle" lineHeight="125%" anchor="middle" family="微软雅黑" size="18px" weight="400" font-style="" opacity="1" y="11.25" transform="rotate(0)"><tspan id="SvgjsTspan1570" dy="22" x="48"><tspan id="SvgjsTspan1571" style="text-decoration:;">c5</tspan></tspan></text></g></g><g id="SvgjsG1572" transform="translate(463,365)"><path id="SvgjsPath1573" d="M 0 0L 96 0L 96 54L 0 54Z" stroke="rgba(33,41,48,1)" stroke-width="2" fill-opacity="1" fill="#ffffff"></path><g id="SvgjsG1574"><text id="SvgjsText1575" font-family="微软雅黑" text-anchor="middle" font-size="18px" width="76px" fill="#323232" font-weight="400" align="middle" lineHeight="125%" anchor="middle" family="微软雅黑" size="18px" weight="400" font-style="" opacity="1" y="11.25" transform="rotate(0)"><tspan id="SvgjsTspan1576" dy="22" x="48"><tspan id="SvgjsTspan1577" style="text-decoration:;">c6</tspan></tspan></text></g></g><g id="SvgjsG1578"><path id="SvgjsPath1579" d="M462 392L438 392L438 392L416.6 392" stroke="#323232" stroke-width="2" fill="none" marker-end="url(#SvgjsMarker1580)"></path></g><g id="SvgjsG1582"><path id="SvgjsPath1583" d="M316.1355819598141 391.4972262419327L222.11190494466928 336.80998552904236" stroke="#323232" stroke-width="2" fill="none" marker-end="url(#SvgjsMarker1584)"></path></g><g id="SvgjsG1586" transform="translate(463,197)"><path id="SvgjsPath1587" d="M 0 0L 96 0L 96 54L 0 54Z" stroke="rgba(33,41,48,1)" stroke-width="2" fill-opacity="1" fill="#ffffff"></path><g id="SvgjsG1588"><text id="SvgjsText1589" font-family="微软雅黑" text-anchor="middle" font-size="18px" width="76px" fill="#323232" font-weight="400" align="middle" lineHeight="125%" anchor="middle" family="微软雅黑" size="18px" weight="400" font-style="" opacity="1" y="11.25" transform="rotate(0)"><tspan id="SvgjsTspan1590" dy="22" x="48"><tspan id="SvgjsTspan1591" style="text-decoration:;">c8</tspan></tspan></text></g></g><g id="SvgjsG1592"><path id="SvgjsPath1593" d="M511 448L511 434L511 434L511 422.6" stroke="#323232" stroke-width="2" fill="none" marker-end="url(#SvgjsMarker1594)"></path></g><g id="SvgjsG1596" transform="translate(317,197)"><path id="SvgjsPath1597" d="M 0 0L 96 0L 96 54L 0 54Z" stroke="rgba(33,41,48,1)" stroke-width="2" fill-opacity="1" fill="#ffffff"></path><g id="SvgjsG1598"><text id="SvgjsText1599" font-family="微软雅黑" text-anchor="middle" font-size="18px" width="76px" fill="#323232" font-weight="400" align="middle" lineHeight="125%" anchor="middle" family="微软雅黑" size="18px" weight="400" font-style="" opacity="1" y="11.25" transform="rotate(0)"><tspan id="SvgjsTspan1600" dy="22" x="48"><tspan id="SvgjsTspan1601" style="text-decoration:;">c7</tspan></tspan></text></g></g><g id="SvgjsG1602"><path id="SvgjsPath1603" d="M462 224L438 224L438 224L416.6 224" stroke="#323232" stroke-width="2" fill="none" marker-end="url(#SvgjsMarker1604)"></path></g><g id="SvgjsG1606"><path id="SvgjsPath1607" d="M657 164L657 180L657 180L657 193.4" stroke="#323232" stroke-width="2" fill="none" marker-end="url(#SvgjsMarker1608)"></path></g><g id="SvgjsG1610"><path id="SvgjsPath1611" d="M657 80L657 94L657 94L657 105.4" stroke="#323232" stroke-width="2" fill="none" marker-end="url(#SvgjsMarker1612)"></path></g><g id="SvgjsG1614"><path id="SvgjsPath1615" d="M316.1355819598141 224.50277375806732L222.11190494466928 279.19001447095764" stroke="#323232" stroke-width="2" fill="none" marker-end="url(#SvgjsMarker1616)"></path></g><g id="SvgjsG1618" transform="translate(609,197)"><path id="SvgjsPath1619" d="M 0 0L 96 0L 96 54L 0 54Z" stroke="rgba(33,41,48,1)" stroke-width="2" fill-opacity="1" fill="#ffffff"></path><g id="SvgjsG1620"><text id="SvgjsText1621" font-family="微软雅黑" text-anchor="middle" font-size="18px" width="76px" fill="#323232" font-weight="400" align="middle" lineHeight="125%" anchor="middle" family="微软雅黑" size="18px" weight="400" font-style="" opacity="1" y="11.25" transform="rotate(0)"><tspan id="SvgjsTspan1622" dy="22" x="48"><tspan id="SvgjsTspan1623" style="text-decoration:;">c9</tspan></tspan></text></g></g><g id="SvgjsG1624"><path id="SvgjsPath1625" d="M608 224L562.6 224" stroke="#323232" stroke-width="2" fill="none" marker-end="url(#SvgjsMarker1626)"></path></g></svg>