<svg id="SvgjsSvg1628" width="971" height="440" xmlns="http://www.w3.org/2000/svg" version="1.1" xmlns:xlink="http://www.w3.org/1999/xlink" xmlns:svgjs="http://svgjs.com/svgjs"><defs id="SvgjsDefs1629"><marker id="SvgjsMarker1662" markerWidth="14" markerHeight="10" refX="10" refY="5" viewBox="0 0 14 10" orient="auto" markerUnits="userSpaceOnUse" stroke-dasharray="0,0"><path id="SvgjsPath1663" d="M0,0 L14,5 L0,10 L0,0" fill="#323232" stroke="#323232" stroke-width="1"></path></marker><marker id="SvgjsMarker1678" markerWidth="14" markerHeight="10" refX="10" refY="5" viewBox="0 0 14 10" orient="auto" markerUnits="userSpaceOnUse" stroke-dasharray="0,0"><path id="SvgjsPath1679" d="M0,0 L14,5 L0,10 L0,0" fill="#323232" stroke="#323232" stroke-width="1"></path></marker><marker id="SvgjsMarker1682" markerWidth="14" markerHeight="10" refX="10" refY="5" viewBox="0 0 14 10" orient="auto" markerUnits="userSpaceOnUse" stroke-dasharray="0,0"><path id="SvgjsPath1683" d="M0,0 L14,5 L0,10 L0,0" fill="#323232" stroke="#323232" stroke-width="1"></path></marker><marker id="SvgjsMarker1692" markerWidth="14" markerHeight="10" refX="10" refY="5" viewBox="0 0 14 10" orient="auto" markerUnits="userSpaceOnUse" stroke-dasharray="0,0"><path id="SvgjsPath1693" d="M0,0 L14,5 L0,10 L0,0" fill="#323232" stroke="#323232" stroke-width="1"></path></marker><marker id="SvgjsMarker1702" markerWidth="14" markerHeight="10" refX="10" refY="5" viewBox="0 0 14 10" orient="auto" markerUnits="userSpaceOnUse" stroke-dasharray="0,0"><path id="SvgjsPath1703" d="M0,0 L14,5 L0,10 L0,0" fill="#323232" stroke="#323232" stroke-width="1"></path></marker><marker id="SvgjsMarker1706" markerWidth="14" markerHeight="10" refX="10" refY="5" viewBox="0 0 14 10" orient="auto" markerUnits="userSpaceOnUse" stroke-dasharray="0,0"><path id="SvgjsPath1707" d="M0,0 L14,5 L0,10 L0,0" fill="#323232" stroke="#323232" stroke-width="1"></path></marker><marker id="SvgjsMarker1710" markerWidth="14" markerHeight="10" refX="10" refY="5" viewBox="0 0 14 10" orient="auto" markerUnits="userSpaceOnUse" stroke-dasharray="0,0"><path id="SvgjsPath1711" d="M0,0 L14,5 L0,10 L0,0" fill="#323232" stroke="#323232" stroke-width="1"></path></marker><marker id="SvgjsMarker1714" markerWidth="14" markerHeight="10" refX="10" refY="5" viewBox="0 0 14 10" orient="auto" markerUnits="userSpaceOnUse" stroke-dasharray="0,0"><path id="SvgjsPath1715" d="M0,0 L14,5 L0,10 L0,0" fill="#323232" stroke="#323232" stroke-width="1"></path></marker><marker id="SvgjsMarker1724" markerWidth="14" markerHeight="10" refX="10" refY="5" viewBox="0 0 14 10" orient="auto" markerUnits="userSpaceOnUse" stroke-dasharray="0,0"><path id="SvgjsPath1725" d="M0,0 L14,5 L0,10 L0,0" fill="#323232" stroke="#323232" stroke-width="1"></path></marker><marker id="SvgjsMarker1734" markerWidth="14" markerHeight="10" refX="10" refY="5" viewBox="0 0 14 10" orient="auto" markerUnits="userSpaceOnUse" stroke-dasharray="0,0"><path id="SvgjsPath1735" d="M0,0 L14,5 L0,10 L0,0" fill="#323232" stroke="#323232" stroke-width="1"></path></marker><marker id="SvgjsMarker1738" markerWidth="14" markerHeight="10" refX="10" refY="5" viewBox="0 0 14 10" orient="auto" markerUnits="userSpaceOnUse" stroke-dasharray="0,0"><path id="SvgjsPath1739" d="M0,0 L14,5 L0,10 L0,0" fill="#323232" stroke="#323232" stroke-width="1"></path></marker></defs><g id="SvgjsG1630" transform="translate(25,193)"><path id="SvgjsPath1631" d="M 0 0L 96 0L 96 54L 0 54Z" stroke="rgba(33,41,48,1)" stroke-width="2" fill-opacity="1" fill="#ffffff"></path><g id="SvgjsG1632"><text id="SvgjsText1633" font-family="微软雅黑" text-anchor="middle" font-size="18px" width="76px" fill="#323232" font-weight="400" align="middle" lineHeight="125%" anchor="middle" family="微软雅黑" size="18px" weight="400" font-style="" opacity="1" y="11.25" transform="rotate(0)"><tspan id="SvgjsTspan1634" dy="22" x="48"><tspan id="SvgjsTspan1635" style="text-decoration:;">c3</tspan></tspan></text></g></g><g id="SvgjsG1636" transform="translate(463,361)"><path id="SvgjsPath1637" d="M 0 0L 96 0L 96 54L 0 54Z" stroke="rgba(33,41,48,1)" stroke-width="2" fill-opacity="1" fill="#f21905"></path><g id="SvgjsG1638"><text id="SvgjsText1639" font-family="微软雅黑" text-anchor="middle" font-size="18px" width="76px" fill="#ffffff" font-weight="400" align="middle" lineHeight="125%" anchor="middle" family="微软雅黑" size="18px" weight="400" font-style="" opacity="1" y="11.25" transform="rotate(0)"><tspan id="SvgjsTspan1640" dy="22" x="48"><tspan id="SvgjsTspan1641" style="text-decoration:;">test</tspan></tspan></text></g></g><g id="SvgjsG1642" transform="translate(850,25)"><path id="SvgjsPath1643" d="M 0 0L 96 0L 96 54L 0 54Z" stroke="rgba(33,41,48,1)" stroke-width="2" fill-opacity="1" fill="#f5c30c"></path><g id="SvgjsG1644"><text id="SvgjsText1645" font-family="微软雅黑" text-anchor="middle" font-size="18px" width="76px" fill="#ffffff" font-weight="400" align="middle" lineHeight="125%" anchor="middle" family="微软雅黑" size="18px" weight="400" font-style="" opacity="1" y="11.25" transform="rotate(0)"><tspan id="SvgjsTspan1646" dy="22" x="48"><tspan id="SvgjsTspan1647" style="text-decoration:;">HEAD</tspan></tspan></text></g></g><g id="SvgjsG1648" transform="translate(850,109)"><path id="SvgjsPath1649" d="M 0 0L 96 0L 96 54L 0 54Z" stroke="rgba(33,41,48,1)" stroke-width="2" fill-opacity="1" fill="#f21905"></path><g id="SvgjsG1650"><text id="SvgjsText1651" font-family="微软雅黑" text-anchor="middle" font-size="18px" width="76px" fill="#ffffff" font-weight="400" align="middle" lineHeight="125%" anchor="middle" family="微软雅黑" size="18px" weight="400" font-style="" opacity="1" y="11.25" transform="rotate(0)"><tspan id="SvgjsTspan1652" dy="22" x="48"><tspan id="SvgjsTspan1653" style="text-decoration:;">master</tspan></tspan></text></g></g><g id="SvgjsG1654" transform="translate(171,193)"><path id="SvgjsPath1655" d="M 0 0L 96 0L 96 54L 0 54Z" stroke="rgba(33,41,48,1)" stroke-width="2" fill-opacity="1" fill="#ffffff"></path><g id="SvgjsG1656"><text id="SvgjsText1657" font-family="微软雅黑" text-anchor="middle" font-size="18px" width="76px" fill="#323232" font-weight="400" align="middle" lineHeight="125%" anchor="middle" family="微软雅黑" size="18px" weight="400" font-style="" opacity="1" y="11.25" transform="rotate(0)"><tspan id="SvgjsTspan1658" dy="22" x="48"><tspan id="SvgjsTspan1659" style="text-decoration:;">c4</tspan></tspan></text></g></g><g id="SvgjsG1660"><path id="SvgjsPath1661" d="M170 220L146 220L146 220L124.60000000000002 220" stroke="#323232" stroke-width="2" fill="none" marker-end="url(#SvgjsMarker1662)"></path></g><g id="SvgjsG1664" transform="translate(317,277)"><path id="SvgjsPath1665" d="M 0 0L 96 0L 96 54L 0 54Z" stroke="rgba(33,41,48,1)" stroke-width="2" fill-opacity="1" fill="#ffffff"></path><g id="SvgjsG1666"><text id="SvgjsText1667" font-family="微软雅黑" text-anchor="middle" font-size="18px" width="76px" fill="#323232" font-weight="400" align="middle" lineHeight="125%" anchor="middle" family="微软雅黑" size="18px" weight="400" font-style="" opacity="1" y="11.25" transform="rotate(0)"><tspan id="SvgjsTspan1668" dy="22" x="48"><tspan id="SvgjsTspan1669" style="text-decoration:;">c5</tspan></tspan></text></g></g><g id="SvgjsG1670" transform="translate(463,277)"><path id="SvgjsPath1671" d="M 0 0L 96 0L 96 54L 0 54Z" stroke="rgba(33,41,48,1)" stroke-width="2" fill-opacity="1" fill="#ffffff"></path><g id="SvgjsG1672"><text id="SvgjsText1673" font-family="微软雅黑" text-anchor="middle" font-size="18px" width="76px" fill="#323232" font-weight="400" align="middle" lineHeight="125%" anchor="middle" family="微软雅黑" size="18px" weight="400" font-style="" opacity="1" y="11.25" transform="rotate(0)"><tspan id="SvgjsTspan1674" dy="22" x="48"><tspan id="SvgjsTspan1675" style="text-decoration:;">c6</tspan></tspan></text></g></g><g id="SvgjsG1676"><path id="SvgjsPath1677" d="M462 304L438 304L438 304L416.6 304" stroke="#323232" stroke-width="2" fill="none" marker-end="url(#SvgjsMarker1678)"></path></g><g id="SvgjsG1680"><path id="SvgjsPath1681" d="M316.1355819598141 303.4972262419327L222.11190494466928 248.80998552904236" stroke="#323232" stroke-width="2" fill="none" marker-end="url(#SvgjsMarker1682)"></path></g><g id="SvgjsG1684" transform="translate(463,109)"><path id="SvgjsPath1685" d="M 0 0L 96 0L 96 54L 0 54Z" stroke="rgba(33,41,48,1)" stroke-width="2" fill-opacity="1" fill="#ffffff"></path><g id="SvgjsG1686"><text id="SvgjsText1687" font-family="微软雅黑" text-anchor="middle" font-size="18px" width="76px" fill="#323232" font-weight="400" align="middle" lineHeight="125%" anchor="middle" family="微软雅黑" size="18px" weight="400" font-style="" opacity="1" y="11.25" transform="rotate(0)"><tspan id="SvgjsTspan1688" dy="22" x="48"><tspan id="SvgjsTspan1689" style="text-decoration:;">c8</tspan></tspan></text></g></g><g id="SvgjsG1690"><path id="SvgjsPath1691" d="M511 360L511 346L511 346L511 334.6" stroke="#323232" stroke-width="2" fill="none" marker-end="url(#SvgjsMarker1692)"></path></g><g id="SvgjsG1694" transform="translate(317,109)"><path id="SvgjsPath1695" d="M 0 0L 96 0L 96 54L 0 54Z" stroke="rgba(33,41,48,1)" stroke-width="2" fill-opacity="1" fill="#ffffff"></path><g id="SvgjsG1696"><text id="SvgjsText1697" font-family="微软雅黑" text-anchor="middle" font-size="18px" width="76px" fill="#323232" font-weight="400" align="middle" lineHeight="125%" anchor="middle" family="微软雅黑" size="18px" weight="400" font-style="" opacity="1" y="11.25" transform="rotate(0)"><tspan id="SvgjsTspan1698" dy="22" x="48"><tspan id="SvgjsTspan1699" style="text-decoration:;">c7</tspan></tspan></text></g></g><g id="SvgjsG1700"><path id="SvgjsPath1701" d="M462 136L438 136L438 136L416.6 136" stroke="#323232" stroke-width="2" fill="none" marker-end="url(#SvgjsMarker1702)"></path></g><g id="SvgjsG1704"><path id="SvgjsPath1705" d="M898 164L898 178L898 178L898 189.39999999999998" stroke="#323232" stroke-width="2" fill="none" marker-end="url(#SvgjsMarker1706)"></path></g><g id="SvgjsG1708"><path id="SvgjsPath1709" d="M898 80L898 94L898 94L898 105.4" stroke="#323232" stroke-width="2" fill="none" marker-end="url(#SvgjsMarker1710)"></path></g><g id="SvgjsG1712"><path id="SvgjsPath1713" d="M316.1355819598141 136.50277375806732L222.11190494466928 191.19001447095764" stroke="#323232" stroke-width="2" fill="none" marker-end="url(#SvgjsMarker1714)"></path></g><g id="SvgjsG1716" transform="translate(609,109)"><path id="SvgjsPath1717" d="M 0 0L 96 0L 96 54L 0 54Z" stroke="rgba(33,41,48,1)" stroke-width="2" fill-opacity="1" fill="#ffffff"></path><g id="SvgjsG1718"><text id="SvgjsText1719" font-family="微软雅黑" text-anchor="middle" font-size="18px" width="76px" fill="#323232" font-weight="400" align="middle" lineHeight="125%" anchor="middle" family="微软雅黑" size="18px" weight="400" font-style="" opacity="1" y="11.25" transform="rotate(0)"><tspan id="SvgjsTspan1720" dy="22" x="48"><tspan id="SvgjsTspan1721" style="text-decoration:;">c9</tspan></tspan></text></g></g><g id="SvgjsG1722"><path id="SvgjsPath1723" d="M608 136L562.6 136" stroke="#323232" stroke-width="2" fill="none" marker-end="url(#SvgjsMarker1724)"></path></g><g id="SvgjsG1726" transform="translate(850,193)"><path id="SvgjsPath1727" d="M 0 0L 96 0L 96 54L 0 54Z" stroke="rgba(33,41,48,1)" stroke-width="2" fill-opacity="1" fill="#ffffff"></path><g id="SvgjsG1728"><text id="SvgjsText1729" font-family="微软雅黑" text-anchor="middle" font-size="18px" width="76px" fill="#323232" font-weight="400" align="middle" lineHeight="125%" anchor="middle" family="微软雅黑" size="18px" weight="400" font-style="" opacity="1" y="11.25" transform="rotate(0)"><tspan id="SvgjsTspan1730" dy="22" x="48"><tspan id="SvgjsTspan1731" style="text-decoration:;">c10</tspan></tspan></text></g></g><g id="SvgjsG1732"><path id="SvgjsPath1733" d="M849.1347099346517 219.49872851386726L708.1150442352534 137.80457735007786" stroke="#323232" stroke-width="2" fill="none" marker-end="url(#SvgjsMarker1734)"></path></g><g id="SvgjsG1736"><path id="SvgjsPath1737" d="M849.0392271497726 220.27733649284914L562.4587822608187 303.00158862574307" stroke="#323232" stroke-width="2" fill="none" marker-end="url(#SvgjsMarker1738)"></path></g></svg>