<svg id="SvgjsSvg1956" width="876" height="356" xmlns="http://www.w3.org/2000/svg" version="1.1" xmlns:xlink="http://www.w3.org/1999/xlink" xmlns:svgjs="http://svgjs.com/svgjs"><defs id="SvgjsDefs1957"><marker id="SvgjsMarker1990" markerWidth="14" markerHeight="10" refX="10" refY="5" viewBox="0 0 14 10" orient="auto" markerUnits="userSpaceOnUse" stroke-dasharray="0,0"><path id="SvgjsPath1991" d="M0,0 L14,5 L0,10 L0,0" fill="#323232" stroke="#323232" stroke-width="1"></path></marker><marker id="SvgjsMarker2006" markerWidth="14" markerHeight="10" refX="10" refY="5" viewBox="0 0 14 10" orient="auto" markerUnits="userSpaceOnUse" stroke-dasharray="0,0"><path id="SvgjsPath2007" d="M0,0 L14,5 L0,10 L0,0" fill="#323232" stroke="#323232" stroke-width="1"></path></marker><marker id="SvgjsMarker2010" markerWidth="14" markerHeight="10" refX="10" refY="5" viewBox="0 0 14 10" orient="auto" markerUnits="userSpaceOnUse" stroke-dasharray="0,0"><path id="SvgjsPath2011" d="M0,0 L14,5 L0,10 L0,0" fill="#323232" stroke="#323232" stroke-width="1"></path></marker><marker id="SvgjsMarker2026" markerWidth="14" markerHeight="10" refX="10" refY="5" viewBox="0 0 14 10" orient="auto" markerUnits="userSpaceOnUse" stroke-dasharray="0,0"><path id="SvgjsPath2027" d="M0,0 L14,5 L0,10 L0,0" fill="#323232" stroke="#323232" stroke-width="1"></path></marker><marker id="SvgjsMarker2030" markerWidth="14" markerHeight="10" refX="10" refY="5" viewBox="0 0 14 10" orient="auto" markerUnits="userSpaceOnUse" stroke-dasharray="0,0"><path id="SvgjsPath2031" d="M0,0 L14,5 L0,10 L0,0" fill="#323232" stroke="#323232" stroke-width="1"></path></marker><marker id="SvgjsMarker2046" markerWidth="14" markerHeight="10" refX="10" refY="5" viewBox="0 0 14 10" orient="auto" markerUnits="userSpaceOnUse" stroke-dasharray="0,0"><path id="SvgjsPath2047" d="M0,0 L14,5 L0,10 L0,0" fill="#323232" stroke="#323232" stroke-width="1"></path></marker><marker id="SvgjsMarker2050" markerWidth="14" markerHeight="10" refX="10" refY="5" viewBox="0 0 14 10" orient="auto" markerUnits="userSpaceOnUse" stroke-dasharray="0,0"><path id="SvgjsPath2051" d="M0,0 L14,5 L0,10 L0,0" fill="#323232" stroke="#323232" stroke-width="1"></path></marker><marker id="SvgjsMarker2054" markerWidth="14" markerHeight="10" refX="10" refY="5" viewBox="0 0 14 10" orient="auto" markerUnits="userSpaceOnUse" stroke-dasharray="0,0"><path id="SvgjsPath2055" d="M0,0 L14,5 L0,10 L0,0" fill="#323232" stroke="#323232" stroke-width="1"></path></marker><marker id="SvgjsMarker2058" markerWidth="14" markerHeight="10" refX="10" refY="5" viewBox="0 0 14 10" orient="auto" markerUnits="userSpaceOnUse" stroke-dasharray="0,0"><path id="SvgjsPath2059" d="M0,0 L14,5 L0,10 L0,0" fill="#323232" stroke="#323232" stroke-width="1"></path></marker><marker id="SvgjsMarker2068" markerWidth="14" markerHeight="10" refX="10" refY="5" viewBox="0 0 14 10" orient="auto" markerUnits="userSpaceOnUse" stroke-dasharray="0,0"><path id="SvgjsPath2069" d="M0,0 L14,5 L0,10 L0,0" fill="#323232" stroke="#323232" stroke-width="1"></path></marker><marker id="SvgjsMarker2072" markerWidth="14" markerHeight="10" refX="10" refY="5" viewBox="0 0 14 10" orient="auto" markerUnits="userSpaceOnUse" stroke-dasharray="0,0"><path id="SvgjsPath2073" d="M0,0 L14,5 L0,10 L0,0" fill="#323232" stroke="#323232" stroke-width="1"></path></marker></defs><g id="SvgjsG1958" transform="translate(25,277)"><path id="SvgjsPath1959" d="M 0 0L 96 0L 96 54L 0 54Z" stroke="rgba(33,41,48,1)" stroke-width="2" fill-opacity="1" fill="#ffffff"></path><g id="SvgjsG1960"><text id="SvgjsText1961" font-family="微软雅黑" text-anchor="middle" font-size="18px" width="76px" fill="#323232" font-weight="400" align="middle" lineHeight="125%" anchor="middle" family="微软雅黑" size="18px" weight="400" font-style="" opacity="1" y="11.25" transform="rotate(0)"><tspan id="SvgjsTspan1962" dy="22" x="48"><tspan id="SvgjsTspan1963" style="text-decoration:;">c1</tspan></tspan></text></g></g><g id="SvgjsG1964" transform="translate(609,277)"><path id="SvgjsPath1965" d="M 0 0L 96 0L 96 54L 0 54Z" stroke="rgba(33,41,48,1)" stroke-width="2" fill-opacity="1" fill="#f21905"></path><g id="SvgjsG1966"><text id="SvgjsText1967" font-family="微软雅黑" text-anchor="middle" font-size="18px" width="76px" fill="#ffffff" font-weight="400" align="middle" lineHeight="125%" anchor="middle" family="微软雅黑" size="18px" weight="400" font-style="" opacity="1" y="11.25" transform="rotate(0)"><tspan id="SvgjsTspan1968" dy="22" x="48"><tspan id="SvgjsTspan1969" style="text-decoration:;">test</tspan></tspan></text></g></g><g id="SvgjsG1970" transform="translate(755,25)"><path id="SvgjsPath1971" d="M 0 0L 96 0L 96 54L 0 54Z" stroke="rgba(33,41,48,1)" stroke-width="2" fill-opacity="1" fill="#f5c30c"></path><g id="SvgjsG1972"><text id="SvgjsText1973" font-family="微软雅黑" text-anchor="middle" font-size="18px" width="76px" fill="#ffffff" font-weight="400" align="middle" lineHeight="125%" anchor="middle" family="微软雅黑" size="18px" weight="400" font-style="" opacity="1" y="11.25" transform="rotate(0)"><tspan id="SvgjsTspan1974" dy="22" x="48"><tspan id="SvgjsTspan1975" style="text-decoration:;">HEAD</tspan></tspan></text></g></g><g id="SvgjsG1976" transform="translate(463,109)"><path id="SvgjsPath1977" d="M 0 0L 96 0L 96 54L 0 54Z" stroke="rgba(33,41,48,1)" stroke-width="2" fill-opacity="1" fill="#f21905"></path><g id="SvgjsG1978"><text id="SvgjsText1979" font-family="微软雅黑" text-anchor="middle" font-size="18px" width="76px" fill="#ffffff" font-weight="400" align="middle" lineHeight="125%" anchor="middle" family="微软雅黑" size="18px" weight="400" font-style="" opacity="1" y="11.25" transform="rotate(0)"><tspan id="SvgjsTspan1980" dy="22" x="48"><tspan id="SvgjsTspan1981" style="text-decoration:;">master</tspan></tspan></text></g></g><g id="SvgjsG1982" transform="translate(171,277)"><path id="SvgjsPath1983" d="M 0 0L 96 0L 96 54L 0 54Z" stroke="rgba(33,41,48,1)" stroke-width="2" fill-opacity="1" fill="#ffffff"></path><g id="SvgjsG1984"><text id="SvgjsText1985" font-family="微软雅黑" text-anchor="middle" font-size="18px" width="76px" fill="#323232" font-weight="400" align="middle" lineHeight="125%" anchor="middle" family="微软雅黑" size="18px" weight="400" font-style="" opacity="1" y="11.25" transform="rotate(0)"><tspan id="SvgjsTspan1986" dy="22" x="48"><tspan id="SvgjsTspan1987" style="text-decoration:;">c2</tspan></tspan></text></g></g><g id="SvgjsG1988"><path id="SvgjsPath1989" d="M170 304L146 304L146 304L124.60000000000002 304" stroke="#323232" stroke-width="2" fill="none" marker-end="url(#SvgjsMarker1990)"></path></g><g id="SvgjsG1992" transform="translate(317,277)"><path id="SvgjsPath1993" d="M 0 0L 96 0L 96 54L 0 54Z" stroke="rgba(33,41,48,1)" stroke-width="2" fill-opacity="1" fill="#ffffff"></path><g id="SvgjsG1994"><text id="SvgjsText1995" font-family="微软雅黑" text-anchor="middle" font-size="18px" width="76px" fill="#323232" font-weight="400" align="middle" lineHeight="125%" anchor="middle" family="微软雅黑" size="18px" weight="400" font-style="" opacity="1" y="11.25" transform="rotate(0)"><tspan id="SvgjsTspan1996" dy="22" x="48"><tspan id="SvgjsTspan1997" style="text-decoration:;">c5</tspan></tspan></text></g></g><g id="SvgjsG1998" transform="translate(463,277)"><path id="SvgjsPath1999" d="M 0 0L 96 0L 96 54L 0 54Z" stroke="rgba(33,41,48,1)" stroke-width="2" fill-opacity="1" fill="#ffffff"></path><g id="SvgjsG2000"><text id="SvgjsText2001" font-family="微软雅黑" text-anchor="middle" font-size="18px" width="76px" fill="#323232" font-weight="400" align="middle" lineHeight="125%" anchor="middle" family="微软雅黑" size="18px" weight="400" font-style="" opacity="1" y="11.25" transform="rotate(0)"><tspan id="SvgjsTspan2002" dy="22" x="48"><tspan id="SvgjsTspan2003" style="text-decoration:;">c6</tspan></tspan></text></g></g><g id="SvgjsG2004"><path id="SvgjsPath2005" d="M462 304L438 304L438 304L416.6 304" stroke="#323232" stroke-width="2" fill="none" marker-end="url(#SvgjsMarker2006)"></path></g><g id="SvgjsG2008"><path id="SvgjsPath2009" d="M316 304L270.6 304" stroke="#323232" stroke-width="2" fill="none" marker-end="url(#SvgjsMarker2010)"></path></g><g id="SvgjsG2012" transform="translate(463,193)"><path id="SvgjsPath2013" d="M 0 0L 96 0L 96 54L 0 54Z" stroke="rgba(33,41,48,1)" stroke-width="2" fill-opacity="1" fill="#ffffff"></path><g id="SvgjsG2014"><text id="SvgjsText2015" font-family="微软雅黑" text-anchor="middle" font-size="18px" width="76px" fill="#323232" font-weight="400" align="middle" lineHeight="125%" anchor="middle" family="微软雅黑" size="18px" weight="400" font-style="" opacity="1" y="11.25" transform="rotate(0)"><tspan id="SvgjsTspan2016" dy="22" x="48"><tspan id="SvgjsTspan2017" style="text-decoration:;">c4</tspan></tspan></text></g></g><g id="SvgjsG2018" transform="translate(317,193)"><path id="SvgjsPath2019" d="M 0 0L 96 0L 96 54L 0 54Z" stroke="rgba(33,41,48,1)" stroke-width="2" fill-opacity="1" fill="#ffffff"></path><g id="SvgjsG2020"><text id="SvgjsText2021" font-family="微软雅黑" text-anchor="middle" font-size="18px" width="76px" fill="#323232" font-weight="400" align="middle" lineHeight="125%" anchor="middle" family="微软雅黑" size="18px" weight="400" font-style="" opacity="1" y="11.25" transform="rotate(0)"><tspan id="SvgjsTspan2022" dy="22" x="48"><tspan id="SvgjsTspan2023" style="text-decoration:;">c3</tspan></tspan></text></g></g><g id="SvgjsG2024"><path id="SvgjsPath2025" d="M462 220L438 220L438 220L416.6 220" stroke="#323232" stroke-width="2" fill="none" marker-end="url(#SvgjsMarker2026)"></path></g><g id="SvgjsG2028"><path id="SvgjsPath2029" d="M316.1355819598141 220.50277375806732L222.11190494466928 275.19001447095764" stroke="#323232" stroke-width="2" fill="none" marker-end="url(#SvgjsMarker2030)"></path></g><g id="SvgjsG2032" transform="translate(609,193)"><path id="SvgjsPath2033" d="M 0 0L 96 0L 96 54L 0 54Z" stroke="rgba(33,41,48,1)" stroke-width="2" fill-opacity="1" fill="#ffffff"></path><g id="SvgjsG2034"><text id="SvgjsText2035" font-family="微软雅黑" text-anchor="middle" font-size="18px" width="76px" fill="#323232" font-weight="400" align="middle" lineHeight="125%" anchor="middle" family="微软雅黑" size="18px" weight="400" font-style="" opacity="1" y="11.25" transform="rotate(0)"><tspan id="SvgjsTspan2036" dy="22" x="48"><tspan id="SvgjsTspan2037" style="text-decoration:;">c7</tspan></tspan></text></g></g><g id="SvgjsG2038" transform="translate(755,193)"><path id="SvgjsPath2039" d="M 0 0L 96 0L 96 54L 0 54Z" stroke="rgba(33,41,48,1)" stroke-width="2" fill-opacity="1" fill="#ffffff"></path><g id="SvgjsG2040"><text id="SvgjsText2041" font-family="微软雅黑" text-anchor="middle" font-size="18px" width="76px" fill="#323232" font-weight="400" align="middle" lineHeight="125%" anchor="middle" family="微软雅黑" size="18px" weight="400" font-style="" opacity="1" y="11.25" transform="rotate(0)"><tspan id="SvgjsTspan2042" dy="22" x="48"><tspan id="SvgjsTspan2043" style="text-decoration:;">c8</tspan></tspan></text></g></g><g id="SvgjsG2044"><path id="SvgjsPath2045" d="M754 220L730 220L730 220L708.6 220" stroke="#323232" stroke-width="2" fill="none" marker-end="url(#SvgjsMarker2046)"></path></g><g id="SvgjsG2048"><path id="SvgjsPath2049" d="M608 220L562.6 220" stroke="#323232" stroke-width="2" fill="none" marker-end="url(#SvgjsMarker2050)"></path></g><g id="SvgjsG2052"><path id="SvgjsPath2053" d="M511 164L511 189.4" stroke="#323232" stroke-width="2" fill="none" marker-end="url(#SvgjsMarker2054)"></path></g><g id="SvgjsG2056"><path id="SvgjsPath2057" d="M608 304L562.6 304" stroke="#323232" stroke-width="2" fill="none" marker-end="url(#SvgjsMarker2058)"></path></g><g id="SvgjsG2060" transform="translate(755,109)"><path id="SvgjsPath2061" d="M 0 0L 96 0L 96 54L 0 54Z" stroke="rgba(33,41,48,1)" stroke-width="2" fill-opacity="1" fill="#f21905"></path><g id="SvgjsG2062"><text id="SvgjsText2063" font-family="微软雅黑" text-anchor="middle" font-size="18px" width="76px" fill="#ffffff" font-weight="400" align="middle" lineHeight="125%" anchor="middle" family="微软雅黑" size="18px" weight="400" font-style="" opacity="1" y="11.25" transform="rotate(0)"><tspan id="SvgjsTspan2064" dy="22" x="48"><tspan id="SvgjsTspan2065" style="text-decoration:;">test02</tspan></tspan></text></g></g><g id="SvgjsG2066"><path id="SvgjsPath2067" d="M803 164L803 189.4" stroke="#323232" stroke-width="2" fill="none" marker-end="url(#SvgjsMarker2068)"></path></g><g id="SvgjsG2070"><path id="SvgjsPath2071" d="M803 80L803 105.4" stroke="#323232" stroke-width="2" fill="none" marker-end="url(#SvgjsMarker2072)"></path></g></svg>